<svg height="60" viewBox="0 0 170 60" width="170" xmlns="http://www.w3.org/2000/svg"><g fill="none" fill-rule="evenodd"><rect fill="#000" fill-rule="nonzero" height="60" rx="4" width="170"/><g fill="#fff" transform="translate(23.319002 13.939394)"><path d="m19.2531439 6.79076479c3.529544 0 5.7865415 3.40963921 5.7865415 3.40963921s-3.4429661 1.8653969-3.4429661 5.9165946c0 4.8083116 4.3251655 6.2069841 4.3251655 6.2069841s-3.4138579 8.0873882-7.2471711 8.0873882c-2.1554923 0-2.2995401-1.2380953-5.164076-1.2380953-2.4876232 0-3.3265336 1.2380953-5.22154574 1.2380953-3.61686832 0-8.28909196-7.8832901-8.28909196-14.2943723 0-6.6594517 4.73043984-9.32623381 7.69573449-9.32623381 2.60405561 0 3.68851901 1.52998557 5.78579511 1.52998557 1.7651452 0 3.1541242-1.52998557 5.7716143-1.52998557zm-.606792-6.79076479c.5202141 3.26406926-2.4450806 7.3010101-5.9888055 7.16969697-.5209604-4.15324675 3.298172-6.95059163 5.9888055-7.16969697z"/><path d="m43.7463364 15.5030303h2.4239395l5.011905 12.9818182h-2.4421646l-1.2210823-3.4363637h-5.1941561l-1.2210823 3.4363637h-2.351039zm-.8019048 7.8181818h3.9730738l-1.9500867-5.5818182h-.0546753zm9.2401303-4.2363636h1.9683117v1.2727273h.0364502c.2916032-.5454573.6986266-.9363625 1.2210823-1.1727273.5224558-.2363648 1.0874285-.3545455 1.6949352-.3545455.7411581 0 1.388143.1303018 1.9409741.3909091.552831.2606074 1.0114917.6181796 1.3759957 1.0727273s.6378779.9848454.8201299 1.5909091c.182252.6060636.2733766 1.254542.2733766 1.9454545 0 .6303062-.0820122 1.2424213-.246039 1.8363637-.1640268.5939423-.4131008 1.1181795-.7472294 1.5727272-.3341287.4545478-.7563395.8181805-1.2666451 1.0909091-.5103056.2727287-1.1117282.4090909-1.8042858.4090909-.3037533 0-.6075021-.0272724-.9112554-.0818181-.3037534-.0545458-.5953522-.1424237-.8748052-.2636364-.2794531-.1212127-.5376396-.2757566-.7745672-.4636364-.2369276-.1878797-.4343643-.4090896-.592316-.6636363h-.0364502v4.6909091h-2.0776624zm7.2535933 4.7090909c0-.4242446-.0546748-.8363616-.164026-1.2363636s-.2733755-.754544-.4920779-1.0636364c-.2187024-.3090925-.4920763-.5575748-.8201299-.7454546-.3280536-.1878797-.7047021-.2818181-1.1299568-.2818181-.8748096 0-1.5339444.3030272-1.9774243.9090909-.4434799.6060636-.6652165 1.4121162-.6652165 2.4181818 0 .4727296.0577123.9121192.1731386 1.3181818.1154262.4060626.288563.754544.5194156 1.0454546.2308525.2909105.5072639.5212112.8292424.690909.3219786.1696979.6955896.2545455 1.1208442.2545455.4738552 0 .8748036-.0969687 1.2028572-.2909091s.59839-.445453.8110174-.7545454c.2126273-.3090925.3645017-.6606041.4556277-1.0545455s.1366883-.7969676.1366883-1.2090909zm3.8819482-4.7090909h1.9683118v1.2727273h.0364502c.2916032-.5454573.6986265-.9363625 1.2210823-1.1727273.5224557-.2363648 1.0874284-.3545455 1.6949351-.3545455.7411581 0 1.388143.1303018 1.9409741.3909091.5528311.2606074 1.0114917.6181796 1.3759957 1.0727273s.6378779.9848454.8201299 1.5909091c.182252.6060636.2733767 1.254542.2733767 1.9454545 0 .6303062-.0820122 1.2424213-.246039 1.8363637-.1640268.5939423-.4131008 1.1181795-.7472295 1.5727272-.3341286.4545478-.7563394.8181805-1.266645 1.0909091-.5103056.2727287-1.1117282.4090909-1.8042858.4090909-.3037534 0-.6075021-.0272724-.9112555-.0818181-.3037533-.0545458-.5953521-.1424237-.8748052-.2636364s-.5376395-.2757566-.7745671-.4636364c-.2369276-.1878797-.4343643-.4090896-.5923161-.6636363h-.0364502v4.6909091h-2.0776624zm7.2535933 4.7090909c0-.4242446-.0546747-.8363616-.1640259-1.2363636s-.2733756-.754544-.492078-1.0636364c-.2187024-.3090925-.4920763-.5575748-.8201299-.7454546-.3280536-.1878797-.7047021-.2818181-1.1299567-.2818181-.8748096 0-1.5339445.3030272-1.9774243.9090909-.4434799.6060636-.6652165 1.4121162-.6652165 2.4181818 0 .4727296.0577122.9121192.1731385 1.3181818s.2885631.754544.5194156 1.0454546c.2308525.2909105.5072639.5212112.8292425.690909.3219785.1696979.6955895.2545455 1.1208442.2545455.4738552 0 .8748036-.0969687 1.2028572-.2909091s.59839-.445453.8110173-.7545454c.2126273-.3090925.3645017-.6606041.4556277-1.0545455s.1366883-.7969676.1366883-1.2090909zm10.6799139.3636364c0 .4969721.0850496.9212103.2551515 1.2727272s.4070259.6393928.7107792.8636364c.3037534.2242435.6530645.3878783 1.0479438.4909091s.8231651.1545454 1.2848702.1545454c.4981554 0 .9234037-.0575751 1.2757576-.1727272s.6378777-.2636355.8565801-.4454546.3766518-.3909079.4738529-.6272727c.097201-.2363648.1458008-.4757564.1458008-.7181818 0-.4969722-.112387-.8636352-.3371645-1.1s-.470814-.4030298-.7381169-.5c-.4617051-.1696978-.9993404-.3303023-1.6129221-.4818182-.6135818-.1515159-1.3699162-.3484836-2.2690261-.5909091-.5589061-.1454553-1.0236418-.3363625-1.3942208-.5727273-.3705791-.2363648-.6652154-.4999985-.8839178-.7909091-.2187024-.2909105-.3736143-.5999983-.4647403-.9272727s-.1366883-.6606044-.1366883-1c0-.6545487.1366869-1.2212097.4100649-1.7s.6348391-.875756 1.084394-1.1909091c.449555-.3151531.9598529-.5484841 1.5309092-.7.5710562-.1515159 1.1481789-.2272727 1.7313853-.2272727.6804075 0 1.3213174.0878779 1.922749.2636364.6014316.1757584 1.1299545.4393921 1.5855845.790909.45563.351517.817091.784846 1.084394 1.3.2673029.5151541.4009524 1.1121179.4009524 1.7909091h-2.2781387c-.0607506-.8363678-.3462745-1.427271-.8565801-1.7727272-.5103056-.3454563-1.160328-.5181819-1.9500866-.5181819-.267303 0-.5406769.0272725-.8201299.0818182-.2794531.0545458-.5346021.1454539-.7654546.2727273s-.4222143.2999989-.5740909.5181818c-.1518767.2181829-.2278139.4909075-.2278139.8181818 0 .4606084.1427619.8212109.4282901 1.0818182.2855281.2606074.6591391.4575751 1.1208442.5909091.0486005.0121213.2399622.0636359.5740909.1545455.3341287.0909095.7077397.1909085 1.1208442.3.4131045.1090914.8170904.215151 1.2119697.3181818.3948794.1030308.6773657.1787876.8474676.2272727.4252547.133334.7958282.3151504 1.1117316.5454546.3159035.2303041.5801649.4939379.7927923.790909.2126273.2969712.3705767.6151499.4738528.9545455s.1549134.6787862.1549134 1.0181818c0 .7272764-.1488369 1.3484823-.4465151 1.8636364-.2976783.5151541-.6895142.936362-1.1755196 1.2636363-.4860053.3272744-1.0388281.566666-1.6584849.7181819s-1.2514542.2272727-1.8954113.2272727c-.7411581 0-1.4397803-.0909082-2.0958875-.2727273s-1.2271549-.4606042-1.7131603-.8363636c-.4860053-.3757595-.8748037-.8575728-1.1664069-1.4454546-.2916032-.5878817-.4434776-1.2818141-.4556277-2.0818181zm9.0761042-5.0727273h1.5673594v-2.8181818h2.0776624v2.8181818h1.8771862v1.5454545h-1.8771862v5.0181818c0 .218183.0091125.4060599.0273377.5636364.0182252.1575766.06075.2909086.1275757.4.0668257.1090915.1670628.1909088.3007143.2454546.1336515.0545457.3159007.0818181.5467533.0818181.1458016 0 .291601-.0030302.4374026-.0090909.1458016-.0060606.291601-.0272725.4374026-.0636363v1.6c-.2308525.0242425-.4556266.0484847-.674329.0727272-.2187024.0242426-.4434765.0363637-.6743291.0363637-.546756 0-.9871917-.0515147-1.3213204-.1545455-.3341286-.1030308-.5953526-.2545444-.7836796-.4545454-.1883271-.200001-.3159016-.4515137-.3827273-.7545455-.0668258-.3030318-.1063131-.6484829-.1184632-1.0363636v-5.5454546h-1.5673594zm11.3360182 9.6545454c-.753309 0-1.424594-.1242411-2.013875-.3727272-.5892815-.2484861-1.0874294-.5909069-1.4944589-1.0272728-.4070295-.4363658-.7168532-.9575727-.9294806-1.5636363-.2126273-.6060637-.3189394-1.2727237-.3189394-2 0-.7151551.1063121-1.3757546.3189394-1.9818182.2126274-.6060636.5224511-1.1272706.9294806-1.5636364s.9051774-.7787866 1.4944589-1.0272727c.589281-.2484861 1.260566-.3727273 2.013875-.3727273.753308 0 1.424593.1242412 2.013874.3727273.589282.2484861 1.08743.5909069 1.494459 1.0272727s.716853.9575728.929481 1.5636364c.212627.6060636.318939 1.2666631.318939 1.9818182 0 .7272763-.106312 1.3939363-.318939 2-.212628.6060636-.522452 1.1272705-.929481 1.5636363-.407029.4363659-.905177.7787867-1.494459 1.0272728-.589281.2484861-1.260566.3727272-2.013874.3727272zm0-1.6363636c.461705 0 .862653-.0969687 1.202857-.2909091.340203-.1939404.619652-.4484833.838355-.7636364.218702-.315153.379689-.669695.482965-1.0636363.103276-.3939414.154914-.7969677.154914-1.2090909 0-.400002-.051638-.799998-.154914-1.2s-.264263-.7545439-.482965-1.0636364c-.218703-.3090924-.498152-.5606051-.838355-.7545454-.340204-.1939404-.741152-.2909091-1.202857-.2909091-.461706 0-.862654.0969687-1.202858.2909091-.340203.1939403-.6196522.445453-.8383547.7545454-.2187024.3090925-.3796892.6636344-.4829653 1.0636364-.1032762.400002-.1549135.799998-.1549135 1.2 0 .4121232.0516373.8151495.1549135 1.2090909.1032761.3939413.2642629.7484833.4829653 1.0636363.2187025.3151531.4981517.569696.8383547.7636364.340204.1939404.741152.2909091 1.202858.2909091zm6.488138-8.0181818h1.950087v1.8181818h.03645c.060751-.2545467.179213-.5030291.35539-.7454545.176177-.2424255.388801-.4636354.637879-.6636364.249077-.200001.525489-.3606055.829242-.4818182s.613577-.1818182.929481-.1818182c.243002 0 .410064.0060606.50119.0181818.091126.0121213.185288.0242424.282489.0363637v2c-.145801-.0242426-.294638-.0454545-.446515-.0636364s-.300713-.0272727-.446515-.0272727c-.352354 0-.68344.0696963-.993268.2090909-.309829.1393946-.580165.3454532-.811018.6181818-.230852.2727287-.413102.6090889-.546753 1.0090909-.133652.400002-.200476.8606035-.200476 1.3818182v4.4727273h-2.077663zm12.885152 3.8727273c-.0243-.3272744-.094162-.6424228-.209588-.9454546-.115427-.3030318-.273376-.5666655-.473853-.7909091-.200477-.2242435-.443476-.4060599-.729005-.5454545-.285528-.1393947-.604464-.2090909-.956818-.2090909-.364504 0-.69559.0636357-.993268.1909091-.297679.1272733-.552828.3030291-.765455.5272727-.212627.2242435-.382726.4878773-.510303.7909091-.127576.3030318-.197439.6303012-.209589.9818182zm-4.847879 1.3636363c0 .3636382.051638.7151498.154914 1.0545455.103276.3393956.258188.6363623.46474.8909091.206552.2545467.467776.457575.78368.6090909.315903.1515159.692552.2272727 1.129956.2272727.607507 0 1.096543-.1303017 1.467122-.3909091s.64699-.6515125.829242-1.1727273h1.968312c-.109351.5090935-.297675.9636344-.564978 1.3636364s-.589277.7363623-.965931 1.0090909-.798865.4787872-1.266645.6181818c-.46778.1393947-.956816.2090909-1.467122.2090909-.741158 0-1.397255-.1212109-1.968311-.3636363-.571057-.2424255-1.054017-.581816-1.448896-1.0181818-.39488-.4363659-.692554-.9575728-.893031-1.5636364s-.300714-1.2727236-.300714-2c0-.66667.106312-1.299997.318939-1.9.212628-.600003.516376-1.1272705.911256-1.5818182.394879-.4545477.871765-.8151502 1.430671-1.0818182s1.190703-.4 1.895411-.4c.741158 0 1.406368.1545439 1.99565.4636364.589281.3090924 1.078317.7181793 1.467121 1.2272727.388804.5090935.67129 1.0939361.847467 1.7545455.176177.6606093.22174 1.3424207.136689 2.0454545z"/><path d="m41.169306 7.70909091h1.5357692c.1036811 0 .2332806-.00808073.3888023-.02424243.1555217-.01616169.3207611-.05494918.495723-.11636363s.3483012-.15030245.5200231-.26666667.3256213-.27474647.4617028-.47515151c.1360814-.20040505.247861-.45090759.335342-.75151515.0874809-.30060757.1312207-.6642403.1312207-1.0909091 0-.41373944-.0404998-.78383675-.1215007-1.11030303-.0810009-.32646627-.2138403-.60444329-.3985224-.83393939-.184682-.2294961-.422821-.40403981-.7144242-.52363636-.2916032-.11959656-.6512418-.17939394-1.0789265-.17939394h-1.5552093zm-.9234055-6.14787879h2.3814142c1.0692118 0 1.8921685.27151244 2.4688948.81454546.5767263.54303301.8650852 1.37049949.8650852 2.48242424 0 .58182109-.0647998 1.09737149-.1944012 1.54666666-.1296014.44929518-.3304806.82747322-.6026436 1.13454546s-.6188416.54141333-1.0400462.7030303-.9201626.24242424-1.496889.24242424h-2.3814142zm8.0384881 4.42181818c0 .30383991.0404998.5737362.1215007.80969697.0810009.23596078.1927804.43313052.335342.59151515s.3094209.27959554.500583.36363637c.1911621.08404082.3936613.1260606.6075036.1260606.2138424 0 .4163416-.04201978.6075037-.1260606.1911621-.08404083.3580214-.20525174.5005829-.36363637.1425616-.15838463.2543412-.35555437.3353421-.59151515.0810008-.23596077.1215007-.50585706.1215007-.80969697 0-.3038399-.0404999-.57373619-.1215007-.80969697-.0810009-.23596077-.1927805-.43474666-.3353421-.59636363-.1425615-.16161697-.3094208-.28444403-.5005829-.36848485-.1911621-.08404083-.3936613-.12606061-.6075037-.12606061-.2138423 0-.4163415.04201978-.6075036.12606061-.1911621.08404082-.3580214.20686788-.500583.36848485s-.2543411.36040286-.335342.59636363c-.0810009.23596078-.1215007.50585707-.1215007.80969697zm-.8748053 0c0-.36848669.0518398-.71272567.155521-1.03272727.1036811-.3200016.2592005-.59797862.4665628-.83393939.2073622-.23596078.4633212-.42181751.7678846-.55757576.3045633-.13575826.6544819-.20363636 1.0497662-.20363636.4017644 0 .753303.0678781 1.0546263.20363636.3013233.13575825.5556623.32161498.7630246.55757576.2073623.23596077.3628816.51393779.4665628.83393939.1036811.3200016.1555209.66424058.1555209 1.03272727s-.0518398.71110953-.1555209 1.02787879c-.1036812.31676926-.2592005.59313013-.4665628.82909091s-.4617013.42020136-.7630246.55272727c-.3013233.13252592-.6528619.19878788-1.0546263.19878788-.3952843 0-.7452029-.06626196-1.0497662-.19878788-.3045634-.13252591-.5605224-.31676649-.7678846-.55272727-.2073623-.23596078-.3628817-.51232165-.4665628-.82909091-.1036812-.31676926-.155521-.6593921-.155521-1.02787879zm11.5571491 2.50181818h-.8748052l-1.0206061-3.98545454h-.0194401l-1.010886 3.98545454h-.8942454l-1.6135296-5.01333333h.9136854l1.1372468 4.10181818h.0194401l1.0108861-4.10181818h.9039654l1.0497663 4.10181818h.0194401l1.1275267-4.10181818h.8553651zm3.1201387-5.01333333h.7776047v.79515152h.0194401c.3434437-.60767981.8877616-.91151515 1.6329697-.91151515.3304837 0 .6058826.04525207.826205.13575757s.3985217.21656485.5346032.37818182.2316611.35393828.2867417.5769697c.0550806.22303141.0826205.47030167.0826205.74181818v3.29696969h-.826205v-3.39393939c0-.31030458-.0907196-.55595869-.2721616-.7369697-.181442-.181011-.430921-.27151515-.7484445-.27151515-.2527227 0-.4714219.03878749-.6561039.11636364-.184682.07757614-.3385814.18747404-.4617027.32969697-.1231214.14222293-.215461.30868591-.2770217.49939394-.0615607.19070802-.0923405.39919079-.0923405.62545454v2.83151515h-.826205zm6.181957-1.91030303h.8262049v6.92363636h-.8262049zm3.4409006 4.42181818c0 .30383991.0404998.5737362.1215007.80969697.0810009.23596078.1927804.43313052.335342.59151515s.3094209.27959554.500583.36363637c.1911621.08404082.3936613.1260606.6075036.1260606.2138424 0 .4163416-.04201978.6075037-.1260606.1911621-.08404083.3580214-.20525174.500583-.36363637.1425615-.15838463.2543411-.35555437.335342-.59151515.0810008-.23596077.1215007-.50585706.1215007-.80969697 0-.3038399-.0404999-.57373619-.1215007-.80969697-.0810009-.23596077-.1927805-.43474666-.335342-.59636363-.1425616-.16161697-.3094209-.28444403-.500583-.36848485-.1911621-.08404083-.3936613-.12606061-.6075037-.12606061-.2138423 0-.4163415.04201978-.6075036.12606061-.1911621.08404082-.3580214.20686788-.500583.36848485s-.2543411.36040286-.335342.59636363c-.0810009.23596078-.1215007.50585707-.1215007.80969697zm-.8748053 0c0-.36848669.0518398-.71272567.155521-1.03272727.1036811-.3200016.2592005-.59797862.4665628-.83393939.2073622-.23596078.4633212-.42181751.7678846-.55757576.3045633-.13575826.6544819-.20363636 1.0497662-.20363636.4017644 0 .753303.0678781 1.0546263.20363636.3013233.13575825.5556623.32161498.7630246.55757576.2073623.23596077.3628816.51393779.4665628.83393939.1036811.3200016.1555209.66424058.1555209 1.03272727s-.0518398.71110953-.1555209 1.02787879c-.1036812.31676926-.2592005.59313013-.4665628.82909091s-.4617013.42020136-.7630246.55272727c-.3013233.13252592-.6528619.19878788-1.0546263.19878788-.3952843 0-.7452029-.06626196-1.0497662-.19878788-.3045634-.13252591-.5605224-.31676649-.7678846-.55272727-.2073623-.23596078-.3628817-.51232165-.4665628-.82909091-.1036812-.31676926-.155521-.6593921-.155521-1.02787879zm11.032266 2.48242425c-.1425616.08404082-.3402008.1260606-.5929235.1260606-.2138424 0-.3839417-.05979738-.5103031-.17939394s-.1895411-.31515016-.1895411-.58666666c-.2268025.2715165-.4908614.4670701-.7921848.58666666-.3013233.11959656-.6269419.17939394-.9768658.17939394-.2268025 0-.4422616-.02585833-.6463839-.07757576-.2041222-.05171743-.3807015-.1325247-.5297431-.24242424-.1490417-.10989954-.2673012-.25373648-.3547821-.43151515-.087481-.17777867-.1312208-.39272601-.1312208-.64484848 0-.28444587.0485998-.51717082.1458008-.69818182.0972011-.18101101.2251806-.32808025.3839423-.44121212.1587618-.11313188.3402011-.19878759.5443233-.2569697s.4131014-.10666647.6269437-.14545455c.2268025-.04525275.4422617-.0791918.6463839-.10181818.2041222-.02262637.3839415-.05494928.5394632-.0969697.1555217-.04202041.2786412-.10343393.3693622-.18424242.090721-.08080848.1360808-.1987871.1360808-.35393939 0-.18101101-.0340198-.3264641-.1020606-.43636364-.0680407-.10989954-.1555204-.1939391-.2624415-.25212121-.1069212-.05818211-.2268007-.0969696-.3596422-.11636364-.1328414-.01939403-.2640609-.02909091-.3936623-.02909091-.3499239 0-.6415227.06626197-.8748053.19878788-.2332825.13252592-.359642.38302846-.3790822.75151515h-.826205c.0129602-.31030458.0777599-.57212014.1944012-.78545454s.2721607-.38626197.4665628-.51878788c.1944021-.13252592.4163412-.2278785.665824-.28606061.2494827-.05818211.5167816-.08727272.8019048-.08727272.2268024 0 .4519815.01616145.675544.04848484.2235625.0323234.4260616.09858536.6075036.19878788s.3272414.24080718.4374026.42181818c.1101613.18101101.165241.41696825.165241.70787879v2.57939394c0 .19394037.01134.33616117.0340202.42666667.0226803.0905055.09882.13575757.2284214.13575757.0712808 0 .1555204-.01616145.2527215-.04848484zm-1.341368-2.56969697c-.1036811.07757614-.2397606.13414123-.4082424.16969697-.1684819.03555573-.3450612.06464635-.5297432.08727272-.184682.02262638-.3709813.04848471-.5589034.07757576-.187922.02909105-.3564013.07595927-.505443.14060606-.1490416.06464679-.2705411.15676708-.3645022.27636364-.093961.11959655-.1409408.28282725-.1409408.48969697 0 .13575825.0275399.25050458.0826205.34424242s.1263603.16969668.2138413.22787879c.0874809.05818211.1895405.10020189.3061818.12606061.1166413.02585871.2397608.03878787.3693622.03878787.272163 0 .5054421-.03717134.6998442-.11151515.1944021-.0743438.3531615-.16808024.4762828-.28121212.1231214-.11313188.213841-.23595893.2721617-.36848485.0583206-.13252591.0874805-.25696911.0874805-.37333333zm3.4409006.1260606c0 .23272844.0307799.46060495.0923405.68363637.0615607.22303141.1555203.4218173.2818817.59636363s.2883608.31353484.4860029.4169697c.1976422.10343486.4293013.15515151.6949842.15515151.278643 0 .5151621-.05494894.7095642-.16484848.1944022-.10989954.3531615-.25373649.4762829-.43151515.1231213-.17777867.212221-.37979685.2673016-.60606061s.0826205-.45575641.0826205-.68848485c0-.24565779-.0291599-.48323117-.0874806-.71272727-.0583206-.2294961-.1506602-.43151428-.2770216-.60606061-.1263614-.17454632-.2899808-.31515098-.490863-.42181818s-.4438812-.16-.7290043-.16c-.2786431 0-.5151621.05494895-.7095643.16484849-.1944021.10989954-.3499215.25535263-.4665627.43636363-.1166413.18101101-.200881.38787763-.2527216.62060606-.0518405.23272844-.0777604.47191797-.0777604.71757576zm3.8880232 2.4630303h-.8262049v-.67878787h-.0194401c-.1360815.27798118-.3499207.47838322-.6415239.60121212-.2916032.12282889-.6123619.18424242-.9622857.18424242-.3888043 0-.7273829-.0711104-1.0157461-.21333333-.2883632-.14222294-.5281222-.3329281-.7192843-.57212121-.1911621-.23919312-.3353415-.51717014-.4325426-.8339394-.097201-.31676926-.1458008-.65292751-.1458008-1.00848485 0-.35555733.0469798-.69171558.1409408-1.00848484.093961-.31676927.2365205-.59313014.4276826-.82909091.1911621-.23596078.4309211-.42343365.7192843-.56242425.2883631-.13899059.6237018-.20848484 1.006026-.20848484.1296014 0 .2689208.01292916.4179625.03878787.1490416.02585872.298081.06949465.4471226.13090909.1490417.06141445.2899811.14222173.4228226.24242425.1328414.10020252.244621.22464572.335342.37333333h.0194401v-2.57939394h.8262049zm6.0361561-2.50181818c0 .30383991.0404999.5737362.1215008.80969697.0810009.23596078.1927804.43313052.335342.59151515.1425615.15838463.3094209.27959554.500583.36363637.1911621.08404082.3936613.1260606.6075036.1260606s.4163415-.04201978.6075036-.1260606c.1911621-.08404083.3580215-.20525174.500583-.36363637.1425616-.15838463.2543411-.35555437.335342-.59151515.0810009-.23596077.1215008-.50585706.1215008-.80969697 0-.3038399-.0404999-.57373619-.1215008-.80969697-.0810009-.23596077-.1927804-.43474666-.335342-.59636363-.1425615-.16161697-.3094209-.28444403-.500583-.36848485-.1911621-.08404083-.3936613-.12606061-.6075036-.12606061s-.4163415.04201978-.6075036.12606061c-.1911621.08404082-.3580215.20686788-.500583.36848485-.1425616.16161697-.2543411.36040286-.335342.59636363-.0810009.23596078-.1215008.50585707-.1215008.80969697zm-.8748052 0c0-.36848669.0518398-.71272567.1555209-1.03272727.1036812-.3200016.2592006-.59797862.4665628-.83393939.2073623-.23596078.4633213-.42181751.7678846-.55757576.3045634-.13575826.654482-.20363636 1.0497663-.20363636.4017644 0 .753303.0678781 1.0546263.20363636.3013233.13575825.5556623.32161498.7630246.55757576.2073622.23596077.3628816.51393779.4665627.83393939.1036812.3200016.155521.66424058.155521 1.03272727s-.0518398.71110953-.155521 1.02787879c-.1036811.31676926-.2592005.59313013-.4665627.82909091-.2073623.23596078-.4617013.42020136-.7630246.55272727-.3013233.13252592-.6528619.19878788-1.0546263.19878788-.3952843 0-.7452029-.06626196-1.0497663-.19878788-.3045633-.13252591-.5605223-.31676649-.7678846-.55272727-.2073622-.23596078-.3628816-.51232165-.4665628-.82909091-.1036811-.31676926-.1555209-.6593921-.1555209-1.02787879zm6.5804794-2.51151515h.7776045v.79515152h.01944c.343444-.60767981.887762-.91151515 1.63297-.91151515.330484 0 .605883.04525207.826205.13575757s.398522.21656485.534603.37818182c.136082.16161697.231661.35393828.286742.5769697.05508.22303141.08262.47030167.08262.74181818v3.29696969h-.826205v-3.39393939c0-.31030458-.090719-.55595869-.272161-.7369697-.181442-.181011-.430921-.27151515-.748445-.27151515-.252722 0-.471422.03878749-.656104.11636364-.184682.07757614-.338581.18747404-.461702.32969697-.123122.14222293-.215461.30868591-.277022.49939394-.061561.19070802-.092341.39919079-.092341.62545454v2.83151515h-.8262045zm10.7115045 0h1.001166v.72727273h-1.001166v3.11272727c0 .09697018.0081.17454517.0243.23272727.0162.05818211.04698.10343419.09234.13575758.045361.03232339.10854.05333328.189541.0630303s.186301.01454546.315902.01454546h.379083v.72727272h-.631804c-.213843 0-.396902-.0145453-.549184-.04363636-.152281-.02909105-.275401-.08242385-.369362-.16-.093961-.07757614-.16362-.18747404-.208981-.32969697-.04536-.14222293-.06804-.3296958-.06804-.56242424v-3.19030303h-.855366v-.72727273h.855366v-1.5030303h.826205zm2.643855-1.91030303h.826205v2.64727273h.01944c.064801-.15515229.155521-.28606007.272162-.39272727s.247861-.19393906.393662-.26181819c.145802-.06787912.298081-.11797963.456843-.15030303.158762-.03232339.312661-.04848484.461703-.04848484.330484 0 .605882.04525207.826205.13575757.220322.0905055.398522.21656485.534603.37818182.136082.16161697.231661.35393828.286742.5769697.05508.22303141.08262.47030167.08262.74181818v3.29696969h-.826205v-3.39393939c0-.31030458-.090719-.55595869-.272161-.7369697-.181442-.181011-.430921-.27151515-.748445-.27151515-.252723 0-.471422.03878749-.656104.11636364-.184682.07757614-.338581.18747404-.461702.32969697-.123122.14222293-.215461.30868591-.277022.49939394-.061561.19070802-.092341.39919079-.092341.62545454v2.83151515h-.826205zm9.622858 3.9369697c-.01296-.19394037-.0567-.37818095-.131221-.55272727-.074521-.17454633-.17496-.32484786-.301322-.4509091-.126361-.12606123-.2754-.22626225-.447122-.30060606-.171722-.0743438-.361261-.11151515-.568624-.11151515-.213842 0-.406621.03717135-.578343.11151515-.171722.07434381-.319141.17616097-.442263.30545455-.123121.12929358-.220321.2795951-.291602.45090909-.07128.17131399-.1134.35393842-.12636.54787879zm.797045 1.39636363c-.110162.56242706-.353161.98585717-.729005 1.27030303-.375844.28444587-.848882.42666667-1.419128.42666667-.401765 0-.750063-.06464582-1.044906-.19393939-.294844-.12929358-.542703-.31030187-.743585-.54303031-.200882-.23272843-.351541-.51070545-.451983-.83393939-.100441-.32323394-.15714-.67555365-.170101-1.0569697 0-.38141604.05832-.73050346.174961-1.04727272.116642-.31676926.280261-.59151399.490863-.82424243.210603-.23272843.460082-.41373673.748445-.5430303.288363-.12929358.604262-.19393939.947706-.19393939.447124 0 .818103.09212029 1.112946.27636363.294843.18424335.531362.41858444.709564.7030303.178202.28444587.301322.5947458.369363.9309091.06804.33616329.09558.65616009.08262.96h-3.761662c-.00648.21979907.019439.42828184.07776.62545454s.15228.37171641.281882.52363636c.129601.15191996.294841.27313087.495723.36363637s.437401.13575757.709564.13575757c.349924 0 .636663-.08080727.860225-.24242424.223563-.16161697.370982-.40727108.442263-.7369697z"/></g></g></svg>